<?xml version="1.0" standalone="no"?>
<!DOCTYPE svg PUBLIC "-//W3C//DTD SVG 20010904//EN"
 "http://www.w3.org/TR/2001/REC-SVG-20010904/DTD/svg10.dtd">
<svg version="1.0" xmlns="http://www.w3.org/2000/svg"
 width="220.000000pt" height="220.000000pt" viewBox="0 0 220.000000 220.000000"
 preserveAspectRatio="xMidYMid meet">
<metadata>
Created by potrace 1.11, written by Peter Selinger 2001-2013
</metadata>
<g transform="translate(0.000000,220.000000) scale(0.100000,-0.100000)"
fill="#000000" stroke="none">
<path d="M327 1978 c-99 -58 -95 -203 8 -252 53 -26 117 -17 156 20 26 25 30
35 27 74 l-3 45 -64 0 c-82 0 -98 -22 -19 -27 48 -3 53 -5 56 -29 5 -39 -30
-64 -90 -64 -43 0 -53 4 -79 33 -84 93 17 231 130 177 42 -20 44 -20 49 -6 6
17 -60 51 -98 51 -19 0 -52 -10 -73 -22z"/>
<path d="M1660 1824 c0 -105 2 -115 18 -112 14 3 18 16 20 75 2 61 6 72 22 76
26 7 26 27 0 27 -15 0 -20 7 -20 25 0 18 -5 25 -20 25 -19 0 -20 -7 -20 -116z"/>
<path d="M596 1864 c-57 -58 -18 -154 62 -154 43 0 84 32 65 51 -7 7 -14 5
-23 -6 -17 -21 -63 -19 -83 3 -24 26 -13 32 65 32 65 0 68 1 68 24 0 12 -11
35 -25 50 -34 36 -92 36 -129 0z m102 -16 c22 -22 13 -28 -38 -28 -27 0 -50 4
-50 8 0 16 25 32 50 32 14 0 31 -5 38 -12z"/>
<path d="M829 1861 c-37 -37 -38 -79 -3 -120 21 -25 34 -31 64 -31 58 0 95 35
95 90 0 84 -95 121 -156 61z m106 -15 c11 -8 18 -26 18 -46 0 -37 -23 -60 -60
-60 -28 0 -63 33 -63 60 0 47 65 76 105 46z"/>
<path d="M1078 1883 c-28 -4 -28 -4 -28 -89 0 -68 3 -84 15 -84 12 0 15 13 15
59 0 63 15 91 49 91 33 0 51 -33 51 -93 0 -44 3 -57 15 -57 12 0 15 14 15 63
0 67 10 87 46 87 32 0 43 -19 46 -85 2 -35 8 -60 16 -63 9 -3 12 15 12 66 0
64 -2 72 -26 91 -31 24 -62 27 -89 7 -17 -12 -22 -12 -39 0 -20 14 -43 15 -98
7z"/>
<path d="M1419 1861 c-20 -20 -29 -39 -29 -61 0 -22 9 -41 29 -61 31 -31 41
-33 115 -23 l46 7 0 77 0 77 -46 7 c-74 10 -84 8 -115 -23z m104 -13 c28 -22
32 -63 8 -87 -42 -42 -104 -18 -104 39 0 51 55 79 96 48z"/>
<path d="M1799 1864 c-53 -57 -15 -154 61 -154 35 0 80 23 80 41 0 13 -27 11
-50 -3 -24 -15 -73 0 -78 25 -3 15 6 17 67 17 69 0 71 1 71 25 0 68 -102 101
-151 49z m107 -21 c17 -17 15 -18 -35 -21 -61 -4 -74 3 -47 24 27 19 61 18 82
-3z"/>
<path d="M1077 1450 c-31 -24 -38 -25 -30 -4 5 13 2 15 -18 9 -13 -4 -27 -12
-30 -17 -3 -5 -10 -8 -15 -7 -21 4 -35 -2 -28 -12 4 -8 9 -7 15 2 5 8 9 10 9
4 0 -5 11 -10 25 -10 14 0 25 3 25 7 0 4 7 5 14 2 8 -3 25 4 37 15 13 12 30
21 38 21 11 0 10 -4 -5 -15 -10 -8 -14 -15 -7 -15 6 0 15 5 18 11 4 6 14 8 24
5 12 -5 11 -2 -3 9 -26 20 -38 19 -69 -5z m-42 -10 c-3 -5 -12 -10 -18 -10 -7
0 -6 4 3 10 19 12 23 12 15 0z"/>
<path d="M1166 1444 c-8 -21 -8 -24 3 -24 5 0 11 9 14 20 6 24 -8 27 -17 4z"/>
<path d="M1192 1418 c5 -15 35 -19 35 -4 0 7 -9 13 -19 13 -11 1 -18 -3 -16
-9z"/>
<path d="M1247 1424 c-3 -4 -2 -15 4 -25 8 -15 6 -18 -8 -13 -10 3 -2 -3 17
-14 19 -10 34 -24 33 -30 -2 -7 7 -12 20 -11 12 0 16 3 10 6 -7 2 -13 9 -13
14 0 6 6 7 13 3 7 -4 8 -3 4 2 -5 5 -16 9 -25 9 -9 0 -24 15 -32 33 -9 18 -19
30 -23 26z"/>
<path d="M672 1395 c-21 -9 -31 -19 -26 -27 5 -8 2 -9 -10 -5 -9 4 -15 3 -12
-2 3 -5 -1 -14 -9 -21 -7 -6 -11 -19 -8 -28 3 -9 2 -14 -2 -9 -9 8 -45 -20
-45 -36 0 -6 9 0 20 13 13 15 20 18 20 9 1 -8 8 -2 16 14 8 15 19 27 24 27 6
0 10 7 10 16 0 8 4 12 10 9 5 -3 22 1 38 9 16 8 33 12 37 8 5 -4 5 -2 1 5 -4
7 -13 10 -21 6 -8 -3 -15 -1 -15 4 0 17 40 11 50 -8 6 -10 16 -19 23 -19 7 0
6 4 -3 10 -13 8 -13 10 2 10 9 0 20 5 24 12 4 7 3 8 -4 4 -7 -4 -12 -2 -12 3
0 6 -5 11 -11 11 -5 0 -7 -4 -4 -10 3 -5 1 -10 -4 -10 -6 0 -11 5 -11 10 0 14
-39 12 -78 -5z m12 -20 c-6 -16 -24 -21 -24 -7 0 11 11 22 21 22 5 0 6 -7 3
-15z m-44 -29 c0 -2 -8 -10 -17 -17 -16 -13 -17 -12 -4 4 13 16 21 21 21 13z"/>
<path d="M923 1398 c-12 -15 -24 -48 -18 -48 2 0 10 14 19 30 15 32 15 38 -1
18z"/>
<path d="M957 1399 c-9 -6 -17 -15 -17 -22 0 -9 2 -9 8 -1 4 7 16 13 27 16 11
2 15 6 10 10 -6 3 -18 2 -28 -3z"/>
<path d="M1458 1403 c12 -2 30 -2 40 0 9 3 -1 5 -23 4 -22 0 -30 -2 -17 -4z"/>
<path d="M1445 1380 l-20 -9 20 1 c11 0 31 4 45 8 l25 8 -25 0 c-14 0 -34 -3
-45 -8z"/>
<path d="M1540 1380 c-9 -6 -10 -10 -3 -10 6 0 15 5 18 10 8 12 4 12 -15 0z"/>
<path d="M1580 1355 c8 -21 7 -26 -2 -22 -7 2 -12 10 -10 16 1 6 -3 11 -9 11
-21 0 -3 -25 29 -40 24 -12 30 -20 26 -35 l-6 -20 15 20 c9 11 11 22 6 23 -5
2 -7 8 -3 13 3 5 0 8 -8 7 -7 -2 -12 3 -10 10 1 8 -2 11 -8 7 -5 -3 -10 1 -10
9 0 8 -4 18 -10 21 -7 4 -7 -3 0 -20z"/>
<path d="M872 1330 c-15 -25 -15 -33 0 -28 6 2 13 14 15 26 4 27 1 27 -15 2z"/>
<path d="M910 1340 c-9 -6 -10 -10 -3 -10 6 0 15 5 18 10 8 12 4 12 -15 0z"/>
<path d="M1323 1286 c5 -16 27 -19 27 -3 0 7 -7 14 -15 14 -9 0 -14 -5 -12
-11z"/>
<path d="M870 1280 c-8 -5 -12 -12 -9 -15 4 -3 12 1 19 10 14 17 11 19 -10 5z"/>
<path d="M1633 1269 c3 -9 1 -21 -4 -26 -6 -6 -4 -10 6 -10 18 0 19 16 4 37
-9 13 -10 13 -6 -1z"/>
<path d="M568 1250 c-26 -24 -22 -35 4 -10 12 11 20 22 17 24 -2 2 -12 -4 -21
-14z"/>
<path d="M1335 1250 c3 -5 11 -10 16 -10 6 0 7 5 4 10 -3 6 -11 10 -16 10 -6
0 -7 -4 -4 -10z"/>
<path d="M860 1207 c0 -25 -4 -49 -10 -52 -5 -3 -10 -12 -10 -18 0 -7 4 -6 11
3 8 11 9 8 5 -15 -6 -26 -5 -28 6 -10 6 11 10 44 9 75 -3 68 -11 80 -11 17z"/>
<path d="M571 1223 c-1 -6 -4 -20 -7 -30 -5 -17 -5 -17 6 0 6 10 9 23 6 30 -3
9 -5 9 -5 0z"/>
<path d="M1350 1220 c0 -5 5 -10 11 -10 5 0 7 5 4 10 -3 6 -8 10 -11 10 -2 0
-4 -4 -4 -10z"/>
<path d="M1625 1196 c0 -13 3 -22 8 -19 4 2 7 13 7 24 0 10 -3 19 -7 19 -5 0
-8 -11 -8 -24z"/>
<path d="M576 1174 c-3 -8 -6 -21 -6 -28 0 -17 35 -57 44 -49 9 9 7 25 -3 19
-9 -6 -35 44 -27 52 3 3 10 -6 15 -19 5 -13 10 -17 10 -9 0 8 -6 23 -13 33
-12 16 -14 16 -20 1z"/>
<path d="M1350 1179 c0 -5 5 -7 10 -4 6 3 10 8 10 11 0 2 -4 4 -10 4 -5 0 -10
-5 -10 -11z"/>
<path d="M1340 1150 c-8 -5 -12 -12 -9 -15 4 -3 12 1 19 10 14 17 11 19 -10 5z"/>
<path d="M1630 1152 c0 -7 -7 -12 -15 -12 -14 0 -19 -11 -16 -36 1 -6 -6 -11
-14 -11 -8 0 -15 5 -15 10 0 6 -2 8 -5 5 -3 -3 -2 -15 3 -27 l8 -22 24 26 c13
14 18 25 11 25 -7 0 -9 5 -6 10 4 6 10 8 15 5 9 -6 23 25 15 33 -3 3 -5 0 -5
-6z"/>
<path d="M1334 1115 c-16 -12 -17 -14 -3 -15 9 0 19 7 23 15 7 19 5 19 -20 0z"/>
<path d="M630 1100 c0 -19 5 -25 25 -27 19 -3 19 -2 3 11 -10 7 -15 16 -11 19
3 4 1 7 -5 7 -7 0 -12 -4 -12 -10z"/>
<path d="M867 1096 c-3 -8 4 -24 16 -37 12 -13 21 -27 20 -31 -2 -5 0 -7 5 -7
22 4 42 -2 37 -11 -3 -5 -13 -6 -23 -3 -9 3 -14 3 -10 -1 3 -4 14 -9 25 -10
10 -2 18 -9 18 -16 0 -13 11 -15 72 -11 29 2 4 14 -27 13 -16 0 -32 3 -35 9
-3 5 1 6 9 3 9 -3 16 -1 16 6 0 6 -4 9 -9 6 -5 -3 -14 1 -21 9 -7 8 -19 15
-27 15 -10 0 -13 6 -9 16 3 8 2 12 -4 9 -13 -8 -38 16 -33 32 6 16 -14 25 -20
9z"/>
<path d="M1311 1077 c-8 -10 -7 -14 4 -14 8 0 12 4 9 8 -2 4 2 10 8 12 8 4 9
6 2 6 -6 1 -17 -5 -23 -12z"/>
<path d="M1540 1080 c0 -7 -7 -9 -16 -6 -10 4 -13 2 -8 -6 5 -7 2 -9 -9 -5 -9
3 -18 1 -21 -6 -3 -9 -8 -8 -15 3 -6 8 -11 10 -11 4 0 -6 7 -17 15 -24 12 -10
15 -10 15 0 0 8 9 10 26 6 16 -4 23 -3 20 3 -4 5 1 14 10 19 11 6 13 11 5 16
-6 4 -11 2 -11 -4z"/>
<path d="M680 1070 c0 -5 5 -10 11 -10 5 0 7 5 4 10 -3 6 -8 10 -11 10 -2 0
-4 -4 -4 -10z"/>
<path d="M723 1072 c-8 -5 -8 -12 3 -27 11 -15 16 -16 27 -6 10 10 9 12 -2 9
-7 -2 -16 3 -19 11 -3 9 0 11 8 6 9 -5 11 -4 6 3 -8 14 -8 14 -23 4z"/>
<path d="M660 1050 c8 -5 20 -10 25 -10 6 0 3 5 -5 10 -8 5 -19 10 -25 10 -5
0 -3 -5 5 -10z"/>
<path d="M1267 1034 c-16 -8 -26 -21 -24 -27 6 -19 43 -16 56 6 12 18 12 19
-10 3 -27 -19 -39 -20 -39 -5 0 5 4 8 9 5 4 -3 16 3 26 14 21 24 19 24 -18 4z"/>
<path d="M532 1025 c-7 -8 -9 -15 -4 -15 5 0 15 7 22 15 16 19 -1 19 -18 0z"/>
<path d="M1641 1026 c-9 -11 -6 -12 15 -8 19 3 25 1 20 -7 -4 -6 -13 -8 -19
-4 -7 4 -6 -1 2 -10 8 -10 16 -15 19 -12 3 2 11 -3 18 -13 7 -9 17 -18 23 -18
6 -1 16 -2 22 -3 5 0 8 -4 6 -8 -3 -5 7 -32 22 -60 26 -52 27 -52 40 -30 13
20 13 21 -2 8 -10 -8 -17 -9 -17 -3 0 6 5 14 10 17 6 3 10 12 10 18 0 7 -7 4
-14 -6 -12 -16 -14 -16 -20 -1 -9 22 -8 26 5 18 19 -11 -7 29 -35 55 -14 13
-23 29 -19 35 3 6 3 8 -2 4 -4 -4 -15 0 -24 10 -23 26 -48 33 -60 18z m79 -60
c0 -6 -8 -2 -16 9 -8 11 -20 19 -25 17 -6 -1 -7 2 -4 8 8 13 45 -16 45 -34z
m48 -51 c-3 -3 -9 2 -12 12 -6 14 -5 15 5 6 7 -7 10 -15 7 -18z"/>
<path d="M483 999 c-6 -6 -9 -18 -6 -27 4 -9 2 -13 -3 -9 -6 3 -15 -3 -22 -13
-14 -23 -3 -33 19 -17 16 12 19 18 19 37 0 5 6 7 13 4 8 -3 20 2 27 11 11 13
10 14 -4 9 -9 -3 -16 -1 -16 5 0 14 -13 14 -27 0z m21 -7 c3 -5 -1 -9 -9 -9
-8 0 -12 4 -9 9 3 4 7 8 9 8 2 0 6 -4 9 -8z"/>
<path d="M1180 985 c-17 -10 -20 -14 -9 -15 9 0 22 7 29 15 15 18 12 18 -20 0z"/>
<path d="M1206 969 c-14 -11 -30 -17 -36 -14 -5 3 -10 1 -10 -6 0 -7 9 -9 23
-5 12 3 26 6 30 6 5 0 5 5 1 12 -5 7 -2 9 8 6 8 -4 20 -3 27 2 10 5 9 9 -3 13
-8 3 -26 -3 -40 -14z"/>
<path d="M1060 970 c8 -5 24 -10 34 -10 26 0 18 6 -19 14 -22 5 -26 4 -15 -4z"/>
<path d="M1125 970 c-3 -5 1 -10 9 -10 9 0 16 5 16 10 0 6 -4 10 -9 10 -6 0
-13 -4 -16 -10z"/>
<path d="M1010 949 c0 -5 5 -7 10 -4 6 3 10 8 10 11 0 2 -4 4 -10 4 -5 0 -10
-5 -10 -11z"/>
<path d="M1040 957 c0 -3 15 -10 32 -16 18 -6 28 -7 23 -2 -12 10 -55 25 -55
18z"/>
<path d="M1118 943 c6 -2 18 -2 25 0 6 3 1 5 -13 5 -14 0 -19 -2 -12 -5z"/>
<path d="M406 898 c-10 -16 -15 -32 -12 -35 3 -3 10 6 15 21 13 31 25 35 15 4
-6 -21 -6 -21 10 -5 15 15 15 19 3 31 -12 12 -16 10 -31 -16z"/>
<path d="M824 923 c6 -12 -29 -30 -49 -24 -5 1 -3 -5 7 -15 17 -17 43 -11 32
8 -5 7 -2 9 8 5 17 -6 19 16 3 30 -4 4 -5 3 -1 -4z"/>
<path d="M1368 924 c-8 -7 2 -37 14 -45 5 -3 23 -5 40 -4 25 2 28 0 16 -9 -13
-10 -12 -14 5 -31 11 -11 17 -14 13 -7 -4 7 -3 19 3 26 13 15 -8 39 -30 34 -7
-2 -13 3 -14 11 0 8 -7 16 -15 18 -13 4 -13 3 0 -6 11 -8 12 -11 2 -11 -7 0
-10 -5 -6 -12 4 -7 3 -8 -5 -4 -6 4 -9 11 -7 15 6 10 -9 33 -16 25z"/>
<path d="M739 863 c-12 -16 -12 -17 1 -6 10 8 21 9 30 3 8 -6 12 -10 8 -11
-11 -2 -26 -6 -35 -9 -5 -1 -12 -2 -16 -1 -5 1 -6 -3 -3 -8 3 -5 -1 -14 -9
-21 -8 -7 -15 -9 -15 -4 0 5 -5 2 -10 -6 -5 -8 -15 -15 -21 -15 -18 0 -19 -33
-1 -47 9 -8 13 -8 9 -2 -4 7 0 15 9 18 9 3 14 13 11 21 -4 8 2 16 13 20 10 3
21 12 24 20 3 8 11 15 19 15 23 0 38 22 26 37 -15 17 -24 16 -40 -4z"/>
<path d="M406 843 c-6 -15 -8 -15 -16 -3 -6 8 -10 11 -10 5 0 -5 -3 -21 -5
-35 -5 -22 -4 -23 5 -5 8 18 9 16 8 -10 -2 -51 2 -75 12 -75 6 0 6 9 0 24 -10
27 5 96 20 96 6 0 10 5 10 10 0 16 -17 11 -24 -7z"/>
<path d="M1477 844 c-10 -10 4 -34 17 -27 6 4 4 -2 -4 -13 -8 -10 -10 -16 -6
-12 5 4 15 0 23 -10 8 -9 12 -12 9 -5 -4 6 0 14 6 16 10 4 10 6 1 6 -7 1 -13
8 -13 16 0 8 -7 15 -16 15 -8 0 -12 5 -9 10 7 11 2 14 -8 4z"/>
<path d="M1811 824 c-6 -15 -9 -29 -6 -32 3 -3 5 1 5 8 0 10 4 8 13 -4 12 -16
13 -16 13 3 0 11 -4 17 -9 14 -5 -3 -6 4 -2 16 9 29 1 26 -14 -5z"/>
<path d="M1531 772 c-8 -14 -6 -18 10 -19 10 -1 19 3 19 8 0 6 -5 7 -12 3 -8
-5 -9 -2 -5 9 8 23 0 22 -12 -1z"/>
<path d="M368 728 c-3 -16 -1 -28 4 -28 6 0 8 -6 5 -13 -3 -8 -2 -18 1 -24 10
-15 52 -26 52 -14 0 6 -9 11 -19 11 -11 0 -23 5 -27 12 -5 7 -2 9 8 6 8 -4 15
0 15 7 0 8 -5 13 -11 12 -5 -1 -13 12 -16 28 l-6 30 -6 -27z"/>
<path d="M1807 736 c-4 -10 -3 -15 3 -11 6 3 10 1 10 -6 0 -7 3 -10 6 -6 3 3
2 13 -4 22 -8 16 -9 16 -15 1z"/>
<path d="M635 730 c3 -5 11 -10 16 -10 6 0 7 5 4 10 -3 6 -11 10 -16 10 -6 0
-7 -4 -4 -10z"/>
<path d="M1538 726 c27 -45 52 -77 52 -67 0 7 5 9 13 5 9 -6 9 -5 0 8 -7 8
-10 18 -6 22 9 9 -29 43 -49 43 -10 0 -14 -5 -10 -11z m52 -26 c0 -5 -4 -10
-10 -10 -5 0 -10 5 -10 10 0 6 5 10 10 10 6 0 10 -4 10 -10z"/>
<path d="M623 687 c0 -38 3 -37 29 8 10 18 9 18 -5 7 -13 -11 -16 -10 -20 5
-2 10 -4 1 -4 -20z"/>
<path d="M1814 684 c-18 -14 -18 -15 4 -4 12 6 22 13 22 15 0 8 -5 6 -26 -11z"/>
<path d="M596 675 c-9 -26 -7 -32 5 -12 6 10 9 21 6 23 -2 3 -7 -2 -11 -11z"/>
<path d="M1785 661 c6 -11 4 -13 -8 -8 -17 6 -42 -24 -30 -37 3 -3 1 -6 -5 -6
-6 0 -14 5 -17 10 -3 6 -11 10 -18 10 -6 0 -2 -7 9 -15 18 -14 17 -14 -13 -9
-23 5 -33 3 -33 -6 0 -6 -14 2 -31 19 -30 30 -46 40 -35 22 4 -5 1 -11 -6 -13
-9 -3 -8 -12 5 -32 10 -15 16 -34 13 -41 -2 -7 -2 -16 2 -20 8 -7 9 -13 11
-51 0 -14 5 -22 11 -19 14 9 13 -8 -2 -23 -9 -9 -9 -12 -1 -12 7 0 14 4 18 9
8 13 -17 101 -29 101 -5 0 -1 7 10 15 10 8 14 15 7 15 -7 0 -10 7 -6 16 4 11
9 12 16 5 27 -27 123 13 110 45 -5 14 -3 15 14 5 17 -8 24 -6 39 12 12 13 13
17 3 10 -12 -10 -18 -10 -29 0 -10 10 -11 9 -5 -2z m-150 -50 c9 -16 -9 -20
-23 -5 -10 12 -10 14 2 14 8 0 17 -4 21 -9z"/>
<path d="M440 634 c0 -9 -5 -12 -12 -8 -7 4 -8 3 -4 -5 4 -6 12 -9 17 -6 5 4
23 -3 39 -15 17 -12 37 -19 45 -16 7 2 16 0 19 -7 3 -7 4 -3 3 7 -1 10 4 21
12 24 9 3 11 0 6 -9 -5 -8 -5 -11 0 -7 4 4 14 0 22 -10 13 -15 13 -14 3 6 -13
27 -4 45 10 22 8 -12 10 -11 10 6 0 12 -6 21 -15 21 -8 0 -15 -4 -15 -8 0 -4
-11 -10 -25 -13 -14 -4 -25 -11 -25 -16 0 -16 -20 -12 -51 11 -16 11 -27 25
-24 30 4 5 1 9 -4 9 -6 0 -11 -7 -11 -16z"/>
<path d="M476 628 c3 -5 10 -6 15 -3 13 9 11 12 -6 12 -8 0 -12 -4 -9 -9z"/>
<path d="M510 620 c-9 -6 -10 -10 -3 -10 6 0 15 5 18 10 8 12 4 12 -15 0z"/>
<path d="M572 530 c-8 -16 -11 -38 -9 -47 3 -11 5 -5 6 12 1 20 4 26 10 17 5
-9 8 -3 9 17 0 17 0 31 -1 31 -1 0 -8 -13 -15 -30z"/>
<path d="M554 436 c-6 -16 23 -66 38 -66 5 0 6 -5 2 -12 -5 -7 -3 -8 7 -2 8 5
17 9 21 9 3 0 10 4 15 9 4 5 3 7 -3 3 -6 -3 -18 7 -27 23 -11 19 -23 27 -32
23 -11 -4 -13 -1 -9 11 3 9 3 16 0 16 -4 0 -9 -6 -12 -14z m56 -58 c0 -6 -7
-5 -15 2 -8 7 -15 17 -15 22 0 6 7 5 15 -2 8 -7 15 -17 15 -22z"/>
<path d="M803 381 c-11 -22 -15 -39 -9 -38 6 1 12 -11 12 -28 2 -51 4 -55 22
-55 14 0 15 2 2 10 -9 6 -14 21 -12 45 2 21 -1 35 -8 35 -6 0 -8 5 -5 10 4 6
10 8 14 5 5 -2 8 9 7 25 -1 17 -2 30 -2 30 -1 0 -11 -18 -21 -39z"/>
<path d="M1388 401 c-4 -15 -1 -32 7 -44 8 -12 12 -32 10 -46 l-5 -26 12 23
c9 18 9 28 1 42 -9 13 -9 20 0 29 8 8 8 11 0 11 -6 0 -13 8 -15 18 -3 13 -5
12 -10 -7z"/>
<path d="M1625 411 c16 -27 -47 -93 -68 -72 -8 8 -6 11 7 11 9 0 15 4 11 9 -3
6 -21 1 -41 -11 -19 -11 -33 -23 -30 -26 3 -3 13 1 23 9 14 12 16 12 8 0 -6
-11 -4 -13 8 -8 9 3 19 2 22 -3 9 -14 75 59 75 81 0 11 -5 19 -11 19 -5 0 -8
-4 -4 -9z"/>
<path d="M1593 378 c-2 -18 0 -20 7 -8 12 18 13 30 2 30 -4 0 -9 -10 -9 -22z"/>
<path d="M647 344 c3 -7 9 -14 14 -14 14 0 10 17 -5 23 -10 4 -13 1 -9 -9z"/>
<path d="M616 342 c-5 -9 23 -40 31 -34 9 6 23 1 18 -8 -3 -5 0 -7 8 -4 8 3
22 -2 30 -11 15 -14 19 -14 47 0 17 9 29 23 29 33 -1 16 -2 16 -6 -1 -2 -9 -9
-15 -14 -12 -5 4 -9 1 -9 -4 0 -6 -9 -10 -20 -8 -30 5 -37 17 -9 17 19 0 21 2
9 10 -9 6 -18 6 -24 0 -6 -6 -17 -10 -25 -9 -11 0 -12 2 -3 6 6 2 12 9 12 15
0 6 -6 5 -15 -2 -13 -10 -19 -10 -34 4 -11 10 -22 13 -25 8z"/>
<path d="M1430 329 c0 -5 5 -7 10 -4 6 3 10 8 10 11 0 2 -4 4 -10 4 -5 0 -10
-5 -10 -11z"/>
<path d="M1455 314 c-16 -8 -20 -11 -8 -8 12 2 34 2 49 -2 l28 -7 -24 -9 c-12
-5 -20 -11 -18 -14 3 -3 23 4 44 15 37 20 31 28 -15 21 -8 -1 -17 3 -20 8 -4
6 -17 5 -36 -4z"/>
<path d="M1438 275 c-14 -16 -32 -25 -50 -25 -16 0 -27 3 -25 8 3 4 -18 8 -47
8 -28 1 -38 -1 -22 -3 22 -4 26 -7 15 -14 -9 -6 -2 -7 21 -3 26 4 31 3 20 -5
-11 -8 -5 -9 25 -4 48 7 98 31 90 43 -3 4 1 11 7 13 11 4 11 6 0 6 -6 1 -22
-10 -34 -24z"/>
<path d="M777 270 c-4 -15 1 -22 19 -26 14 -4 28 -4 31 0 4 3 -4 6 -16 6 -16
0 -21 4 -18 15 4 8 2 17 -2 20 -5 2 -11 -4 -14 -15z"/>
<path d="M1400 273 c-14 -7 -18 -13 -10 -13 17 0 47 17 40 23 -3 2 -16 -2 -30
-10z"/>
<path d="M900 250 c23 -7 23 -8 -10 -10 l-35 -2 43 -9 c23 -4 47 -11 54 -15 7
-4 8 -3 4 5 -4 6 -2 20 5 29 11 14 11 15 -1 5 -17 -15 -34 -17 -25 -3 4 6 -7
10 -27 9 -31 -1 -32 -1 -8 -9z"/>
<path d="M993 242 c-16 -12 -14 -13 17 -7 19 4 39 11 44 15 14 14 -43 6 -61
-8z"/>
<path d="M1140 251 c0 -11 18 -17 85 -26 66 -9 54 2 -16 14 -53 9 -54 9 -12
10 23 0 54 -4 70 -9 26 -9 27 -9 9 5 -22 17 -136 21 -136 6z"/>
<path d="M1054 233 c-16 -12 -14 -13 16 -7 43 8 64 25 28 22 -15 -1 -35 -8
-44 -15z"/>
<path d="M1106 221 c-14 -5 -16 -10 -8 -15 7 -4 19 0 28 8 17 17 11 19 -20 7z"/>
</g>
</svg>
